<svg version="1.1" viewBox="0.0 0.0 432.0 480.0" fill="none" stroke="none" stroke-linecap="square" stroke-miterlimit="10" xmlns:xlink="http://www.w3.org/1999/xlink" xmlns="http://www.w3.org/2000/svg"><clipPath id="p.0"><path d="m0 0l432.0 0l0 480.0l-432.0 0l0 -480.0z" clip-rule="nonzero"/></clipPath><g clip-path="url(#p.0)"><path fill="#000000" fill-opacity="0.0" d="m0 0l432.0 0l0 480.0l-432.0 0z" fill-rule="evenodd"/><path fill="#000000" fill-opacity="0.0" d="m160.04567 99.301056l0 0c-89.647224 27.448463 -145.6671 116.895676 -131.54605 210.04025c14.121038 93.14459 94.10211 161.74927 187.81183 161.09772l-1.304596 -189.68048z" fill-rule="evenodd"/><path fill="#000000" fill-opacity="0.0" d="m160.04567 99.301056l0 0c-89.647224 27.448463 -145.6671 116.895676 -131.54605 210.04025c14.121038 93.14459 94.10211 161.74927 187.81183 161.09772" fill-rule="evenodd"/><path stroke="#000000" stroke-width="12.0" stroke-linejoin="round" stroke-linecap="butt" d="m111.2037 122.33282l-0.44373322 0.2938614c-0.29219055 0.19467926 -0.5837555 0.39011383 -0.8746872 0.5863266c-1.1637344 0.7848511 -2.3174667 1.5819321 -3.4610214 2.3910522c-2.28714 1.6182175 -4.5336227 3.284523 -6.7383575 4.997154c-17.637856 13.701004 -32.603485 30.365967 -44.326355 49.083923c-23.44574 37.435944 -33.92045 83.08391 -26.85993 129.65617c14.121038 93.14459 94.10212 161.74924 187.81183 161.09772" fill-rule="evenodd"/><path fill="#000000" stroke="#000000" stroke-width="12.0" stroke-linecap="butt" d="m116.86325 134.33467l27.315262 -27.551346l-38.63437 3.5476456z" fill-rule="evenodd"/><path fill="#000000" d="m378.6309 105.54471l0 0c14.37677 -14.376801 28.344086 -23.718887 31.196838 -20.866142l0 0c1.3699341 1.3699417 -0.05883789 5.426361 -3.9719849 11.276909c-3.9131775 5.85054 -9.990173 13.015961 -16.894165 19.919945l0 0c-14.376801 14.376793 -28.344086 23.71888 -31.196838 20.866142l0 0c-1.3699341 -1.3699341 0.05883789 -5.426361 3.9719849 -11.276909c3.913147 -5.850548 9.990173 -13.015961 16.894165 -19.919945z" fill-rule="evenodd"/><path stroke="#000000" stroke-width="1.0" stroke-linejoin="round" stroke-linecap="butt" d="m378.6309 105.54471l0 0c14.37677 -14.376801 28.344086 -23.718887 31.196838 -20.866142l0 0c1.3699341 1.3699417 -0.05883789 5.426361 -3.9719849 11.276909c-3.9131775 5.85054 -9.990173 13.015961 -16.894165 19.919945l0 0c-14.376801 14.376793 -28.344086 23.71888 -31.196838 20.866142l0 0c-1.3699341 -1.3699341 0.05883789 -5.426361 3.9719849 -11.276909c3.913147 -5.850548 9.990173 -13.015961 16.894165 -19.919945z" fill-rule="evenodd"/><path fill="#000000" d="m208.69292 41.199474l0 0c0 -20.325817 3.2714844 -36.80315 7.307083 -36.80315l0 0c1.9379578 0 3.7965393 3.8774638 5.1668854 10.779392c1.3703461 6.90193 2.1401978 16.262955 2.1401978 26.023756l0 0c0 20.325817 -3.2714844 36.80315 -7.307083 36.80315l0 0c-1.9379578 0 -3.7965393 -3.8774643 -5.1668854 -10.779396c-1.3703461 -6.901928 -2.1401978 -16.26295 -2.1401978 -26.023754z" fill-rule="evenodd"/><path stroke="#000000" stroke-width="1.0" stroke-linejoin="round" stroke-linecap="butt" d="m208.69292 41.199474l0 0c0 -20.325817 3.2714844 -36.80315 7.307083 -36.80315l0 0c1.9379578 0 3.7965393 3.8774638 5.1668854 10.779392c1.3703461 6.90193 2.1401978 16.262955 2.1401978 26.023756l0 0c0 20.325817 -3.2714844 36.80315 -7.307083 36.80315l0 0c-1.9379578 0 -3.7965393 -3.8774643 -5.1668854 -10.779396c-1.3703461 -6.901928 -2.1401978 -16.26295 -2.1401978 -26.023754z" fill-rule="evenodd"/><path fill="#000000" d="m53.371033 105.54471l0 0c14.376801 14.376801 23.718887 28.3441 20.866142 31.196854l0 0c-1.3699341 1.3699341 -5.426361 -0.05883789 -11.276905 -3.9720001c-5.850544 -3.9131622 -13.0159645 -9.990166 -19.919945 -16.894142l0 0c-14.376799 -14.376801 -23.71889 -28.344109 -20.866142 -31.196854l0 0c1.369936 -1.3699341 5.426361 0.05883026 11.276905 3.9719925c5.850544 3.9131622 13.015961 9.990166 19.919945 16.89415z" fill-rule="evenodd"/><path stroke="#000000" stroke-width="1.0" stroke-linejoin="round" stroke-linecap="butt" d="m53.371033 105.54471l0 0c14.376801 14.376801 23.718887 28.3441 20.866142 31.196854l0 0c-1.3699341 1.3699341 -5.426361 -0.05883789 -11.276905 -3.9720001c-5.850544 -3.9131622 -13.0159645 -9.990166 -19.919945 -16.894142l0 0c-14.376799 -14.376801 -23.71889 -28.344109 -20.866142 -31.196854l0 0c1.369936 -1.3699341 5.426361 0.05883026 11.276905 3.9719925c5.850544 3.9131622 13.015961 9.990166 19.919945 16.89415z" fill-rule="evenodd"/><path fill="#000000" fill-opacity="0.0" d="m89.338585 113.34646l236.34644 0l0 431.62204l-236.34644 0z" fill-rule="evenodd"/><path fill="#000000" d="m328.49484 170.3402q0 20.890625 -13.5625 43.6875q-13.5625 22.796875 -37.4375 39.71875q-23.875015 16.92189 -49.32814 21.23439q-14.640625 29.53125 -21.109375 41.28125l-5.046875 8.171875q47.515625 11.75 78.718765 35.75q15.84375 12.25 21.359375 30.0q2.890625 9.125 2.890625 15.59375q0 6.484375 -2.53125 10.921875q-2.515625 4.453125 -5.875 6.125q-3.359375 1.6875 -4.796875 1.6875q-1.4375 0 -1.4375 -1.203125q0 -1.203125 2.75 -7.09375q2.765625 -5.875 2.765625 -13.796875q0 -7.90625 -3.359375 -17.515625q-3.359375 -9.59375 -12.484375 -17.640625q-9.125 -8.03125 -25.32814 -15.109375q-16.1875 -7.09375 -28.078125 -10.09375q-11.875 -3.0 -31.796875 -6.828125q-20.390625 28.5625 -42.46875 39.109375q-13.203125 6.484375 -23.40625 6.484375q-10.203117 0 -18.124992 -4.078125q-13.671875 -6.71875 -13.671875 -20.40625q0 -13.671875 18.0 -24.0q20.390617 -12.0 55.203117 -12.0q12.46875 0 22.546875 1.921875q10.8125 -16.796875 25.203125 -46.3125q-1.4375 0 -2.640625 0q-15.109375 0 -28.078125 -5.03125q-12.953125 -5.046875 -20.640625 -13.6875q-10.078125 -11.281265 -10.078125 -25.437515q0 -7.453125 3.71875 -16.09375q3.71875 -8.640625 16.5625 -17.515625q12.84375 -8.875 32.515625 -13.4375q3.125 -0.71875 5.28125 -0.71875q2.15625 0 2.640625 1.203125q0.484375 1.203125 -1.921875 2.15625q-2.390625 0.953125 -5.515625 1.4375q-10.3125 1.203125 -19.203125 6.96875q-15.359375 9.828125 -21.359375 30.234375q-1.4375 4.796875 -1.4375 9.234375q0 4.4375 1.671875 10.6875q1.6875 6.234375 7.203125 12.843765q5.53125 6.59375 15.0 9.234375q9.484375 2.640625 16.5625 2.640625q7.078125 0 13.078125 -0.71875l20.40625 -51.35939q21.125015 -54.25 50.406265 -66.71875q7.671875 -3.125 14.984375 -3.125q7.328125 0 13.921875 4.6875q6.609375 4.671875 7.09375 11.390625q0.234375 2.875 0.234375 5.515625zm-10.078125 0.25q0 -9.125 -8.40625 -9.125q-12.234375 0 -29.75 21.359375q-13.6875 17.046875 -26.29689 41.171875q-12.59375 24.109375 -22.4375 44.51564q33.35939 -7.453125 60.125015 -36.60939q26.765625 -29.15625 26.765625 -61.3125zm-132.96877 163.20314q-11.75 -2.640625 -24.234375 -2.640625q-12.484375 0 -25.6875 3.59375q-27.593742 7.203125 -32.390617 20.40625q-0.96875 2.390625 -0.96875 4.546875q0 6.25 6.84375 10.203125q6.84375 3.96875 15.0 3.96875q11.281242 0 24.484367 -6.25q19.921875 -9.59375 36.953125 -33.828125z" fill-rule="nonzero"/><path fill="#000000" fill-opacity="0.0" d="m270.96118 99.301056l0 0c89.64722 27.448463 145.66708 116.895676 131.54605 210.04025c-14.121033 93.14459 -94.10211 161.74927 -187.81183 161.09772l1.304596 -189.68048z" fill-rule="evenodd"/><path fill="#000000" fill-opacity="0.0" d="m270.96118 99.301056l0 0c89.64722 27.448463 145.66708 116.895676 131.54605 210.04025c-14.121033 93.14459 -94.10211 161.74927 -187.81183 161.09772" fill-rule="evenodd"/><path stroke="#000000" stroke-width="12.0" stroke-linejoin="round" stroke-linecap="butt" d="m319.80316 122.33282l0.4437256 0.2938614c0.2921753 0.19467926 0.58374023 0.39011383 0.8746948 0.5863266c1.1637268 0.7848511 2.3174438 1.5819321 3.4609985 2.3910522c2.28714 1.6182175 4.5336304 3.284523 6.738373 4.997154c17.637817 13.701004 32.603455 30.365967 44.326355 49.083923c23.44574 37.435944 33.92044 83.08391 26.859924 129.65617c-14.121033 93.14459 -94.10211 161.74924 -187.81181 161.09772" fill-rule="evenodd"/><path fill="#000000" stroke="#000000" stroke-width="12.0" stroke-linecap="butt" d="m325.4627 110.33097l-38.63437 -3.5476456l27.315247 27.551346z" fill-rule="evenodd"/></g></svg>