<svg version="1.1" viewBox="0.0 0.0 1006.2572178477691 390.6692913385827" fill="none" stroke="none" stroke-linecap="square" stroke-miterlimit="10" xmlns:xlink="http://www.w3.org/1999/xlink" xmlns="http://www.w3.org/2000/svg"><clipPath id="p.0"><path d="m0 0l1006.2572 0l0 390.66928l-1006.2572 0l0 -390.66928z" clip-rule="nonzero"/></clipPath><g clip-path="url(#p.0)"><path fill="#000000" fill-opacity="0.0" d="m0 0l1006.2572 0l0 390.66928l-1006.2572 0z" fill-rule="evenodd"/><path fill="#a6abbd" d="m86.79614 86.6796l219.49606 0l0 219.49606l-219.49606 0z" fill-rule="evenodd"/><path fill="#414656" d="m131.10614 262.48544l0 -132.12599l130.86615 0l0 132.12599z" fill-rule="evenodd"/><path fill="#3c6fbd" d="m172.61154 21.389124l67.69086 218.3002l-20.263596 7.777542l-96.08867 -207.40059z" fill-rule="evenodd"/><path fill="#b74b63" d="m5.734908 4.8162727l381.60632 0l0 49.480316l-381.60632 0z" fill-rule="evenodd"/><path fill="#3c6fbd" d="m101.526474 346.88452l127.48265 -117.71597l11.491379 9.983124l-98.65907 142.75647z" fill-rule="evenodd"/><path fill="#b74b63" d="m66.87924 336.33072l130.86613 0l0 49.480316l-130.86613 0z" fill-rule="evenodd"/><path fill="#000000" fill-opacity="0.0" d="m387.34122 110.34908l640.5354 0l0 169.66928l-640.5354 0z" fill-rule="evenodd"/><path fill="#ffffff" d="m435.27872 238.38908l0 0l0 -72.78125l-36.453125 0l0 -16.5l89.28125 0l0 16.5l-36.34375 0l0 72.78125l-16.484375 0zm79.11606 0q-4.71875 0 -8.625 -2.359375q-3.90625 -2.359375 -6.265625 -6.265625q-2.34375 -3.90625 -2.34375 -8.609375l0 -54.8125q0 -4.703125 2.34375 -8.609375q2.359375 -3.90625 6.265625 -6.265625q3.90625 -2.359375 8.625 -2.359375l54.796875 0q4.71875 0 8.625 2.359375q3.90625 2.359375 6.25 6.265625q2.359375 3.90625 2.359375 8.609375l0 54.8125q0 4.703125 -2.359375 8.609375q-2.34375 3.90625 -6.25 6.265625q-3.90625 2.359375 -8.625 2.359375l-54.796875 0zm0.609375 -16.484375l53.328125 0q0.609375 0 1.109375 -0.4375q0.5 -0.4375 0.5 -1.0625l0 -53.3125q0 -0.625 -0.5 -1.046875q-0.5 -0.4375 -1.109375 -0.4375l-53.328125 0q-0.609375 0 -1.046875 0.4375q-0.4375 0.421875 -0.4375 1.046875l0 53.3125q0 0.625 0.4375 1.0625q0.4375 0.4375 1.046875 0.4375zm85.06268 16.484375l0 -89.28125l17.984375 0l32.359375 38.5625l32.25 -38.5625l18.09375 0l0 89.28125l-16.484375 0l0 -65.46875l-33.859375 40.296875l-33.96875 -40.171875l0 65.34375l-16.375 0zm132.07202 0q-4.71875 0 -8.625 -2.359375q-3.90625 -2.359375 -6.265625 -6.265625q-2.34375 -3.90625 -2.34375 -8.609375l0 -54.8125q0 -4.703125 2.34375 -8.609375q2.359375 -3.90625 6.265625 -6.265625q3.90625 -2.359375 8.625 -2.359375l54.796875 0q4.71875 0 8.625 2.359375q3.90625 2.359375 6.25 6.265625q2.359375 3.90625 2.359375 8.609375l0 54.8125q0 4.703125 -2.359375 8.609375q-2.34375 3.90625 -6.25 6.265625q-3.90625 2.359375 -8.625 2.359375l-54.796875 0zm0.609375 -16.484375l53.328125 0q0.609375 0 1.109375 -0.4375q0.5 -0.4375 0.5 -1.0625l0 -53.3125q0 -0.625 -0.5 -1.046875q-0.5 -0.4375 -1.109375 -0.4375l-53.328125 0q-0.609375 0 -1.046875 0.4375q-0.4375 0.421875 -0.4375 1.046875l0 53.3125q0 0.625 0.4375 1.0625q0.4375 0.4375 1.046875 0.4375zm85.06268 16.484375l0 -89.15625l71.921875 0q4.71875 0 8.6875 2.359375q3.96875 2.359375 6.3125 6.265625q2.359375 3.90625 2.359375 8.609375l0 24.0625q0 4.703125 -2.359375 8.671875q-2.34375 3.96875 -6.3125 6.265625q-3.96875 2.296875 -8.6875 2.296875l-55.546875 0.125l0 30.5l-16.375 0zm17.859375 -47.125l53.328125 0q0.609375 0 1.109375 -0.359375q0.5 -0.375 0.5 -1.0l0 -22.8125q0 -0.625 -0.5 -1.046875q-0.5 -0.4375 -1.109375 -0.4375l-53.328125 0q-0.609375 0 -1.046875 0.4375q-0.4375 0.421875 -0.4375 1.046875l0 22.8125q0 0.625 0.4375 1.0q0.4375 0.359375 1.046875 0.359375zm112.22467 47.125l0 0l0 -72.78125l-36.453125 0l0 -16.5l89.28125 0l0 16.5l-36.34375 0l0 72.78125l-16.484375 0z" fill-rule="nonzero"/></g></svg>