<svg version="1.1" viewBox="0.0 0.0 392.7244094488189 392.6929133858268" fill="none" stroke="none" stroke-linecap="square" stroke-miterlimit="10" xmlns:xlink="http://www.w3.org/1999/xlink" xmlns="http://www.w3.org/2000/svg"><clipPath id="p.0"><path d="m0 0l392.7244 0l0 392.6929l-392.7244 0l0 -392.6929z" clip-rule="nonzero"/></clipPath><g clip-path="url(#p.0)"><path fill="#000000" fill-opacity="0.0" d="m0 0l392.7244 0l0 392.6929l-392.7244 0z" fill-rule="evenodd"/><path fill="#a6abbd" d="m86.79614 87.1245l219.49606 0l0 220.62993l-219.49606 0z" fill-rule="evenodd"/><path fill="#414656" d="m131.10614 263.83267l0 -132.8189l130.86615 0l0 132.8189z" fill-rule="evenodd"/><path fill="#3c6fbd" d="m172.61154 21.489023l67.69086 219.43013l-20.263596 7.8168945l-96.08867 -208.47537z" fill-rule="evenodd"/><path fill="#b74b63" d="m5.734908 4.840993l381.60632 0l0 49.732285l-381.60632 0z" fill-rule="evenodd"/><path fill="#3c6fbd" d="m101.526474 348.6579l127.48265 -118.30983l11.491379 10.037003l-98.65907 143.48544z" fill-rule="evenodd"/><path fill="#b74b63" d="m66.87924 338.05698l130.86613 0l0 49.73227l-130.86613 0z" fill-rule="evenodd"/></g></svg>